<?xml version="1.0" encoding="utf-8"?>

<svg version="1.1" id="Layer_1" xmlns="http://www.w3.org/2000/svg" xmlns:xlink="http://www.w3.org/1999/xlink" x="0px" y="0px"
	 viewBox="0 0 10742.9 3500" style="enable-background:new 0 0 10742.9 3500;" xml:space="preserve">
<style type="text/css">
	.st0{fill:#FEFEFE;}
	.st1{fill:#33CBFD;}
	.st2{fill:#FCFCFC;}
	.st3{fill:#F9F9F9;}
	.st4{fill:#33CBFE;}
</style>
<g id="XMLID_83_">
	<g id="XMLID_55_">
		<path id="XMLID_97_" class="st0" d="M5283.1,3505c-2909.2,0-5818.3,0-8727.5,0.5c-18.7,0-23-4.2-23-23
			c0.5-1151.7,0.5-2303.3,0-3455c0-18.7,4.2-23,23-23C2374,5,8192.3,5,14010.6,4.5c18.7,0,23,4.2,23,23
			c-0.5,1151.7-0.5,2303.3,0,3455c0,18.7-4.2,23-23,23C11101.5,3505,8192.3,3505,5283.1,3505z"/>
		<path id="XMLID_96_" class="st1" d="M8144,2319.8c-12.2,52.2-26.3,104-36,156.6c-11,59.8-48,104.3-80.9,151.9
			c-45.9,66.4-112.1,108.5-181.5,142.6c-43.6,21.4-96,24.1-143.4,38.6c-59.7,18.2-117.7,11-175.5-5.6c-41.3-11.8-86-14-123.9-34.9
			c-70.3-38.9-136.2-84-179.6-155c-21.9-35.9-22.7-35.1-56.5-10.2c-51.3,37.9-102.1,76.5-159.1,105.8
			c-80.4,41.3-167.8,59.6-254.7,80c-46.3,10.9-92.3,23.4-140.1,26.4c-8.3,3.6-17.7-1.1-25.8,3.6c-18,0.4-36.1,0.8-54.1,1.3
			c-9.8,2.4-19.7,2.4-29.5,0c-18-0.4-36.1-0.8-54.1-1.3c-8.1-4.7-17.6,0-25.8-3.6c-73.7-5.5-143.6-30-215.7-43.6
			c-135.5-25.5-247.5-96.5-353.3-179.5c-15.2-11.9-24.1-11.5-33.2,4.9c-40.2,72.5-107.9,115.7-173.2,161.1
			c-23.5,16.3-51.7,21.5-79.3,27.7c-46.7,10.5-92.9,23.5-139.9,32.3c-52.9,9.9-102.5-12.9-153.7-20.2
			c-88.7-12.6-158.3-61.3-225.1-115.4c-25.7-20.8-41-51.2-60.4-77.6c-8.5-11.6-13-10.5-23.1-2.9c-51.6,38.8-102.6,78.7-158.5,111.5
			c-75.7,44.5-160.7,60.3-244.5,80.3c-54.6,13-108.9,27.3-165.7,26.3c-8.2,2.3-16.4,2.3-24.5,0c-23.7-3.9-47.9,1.5-71.6-4.2
			c-12.4-3-7.7,7.6-8.9,12.7c-14.1,59.4-28.2,118.7-41.9,178.2c-7.8,33.8-26.6,61.5-44.3,90.7c-42.9,70.9-104.5,121.1-172.4,165.2
			c-37.1,24.1-80.6,29.5-122.5,38.6c-40.2,8.7-78.9,23.4-121.2,23.4c-61.7-0.1-119.2-20.1-177.9-33.8
			c-97.4-22.7-165.3-84.6-225.5-162.2c-52-67-63.2-145.2-82.6-222c-6.7-26.6-16.9-52.8-15.6-81.1c0.3-5.7-0.5-12.9-9.5-10.2
			c-58.5,17.7-112.2-10.1-168.1-17.6c-81.1-10.8-148.5-51.7-208.6-103.3c-40.4-34.7-77.9-73.9-107.4-121.2
			c-26.1,31.5-48.1,64.8-76.9,92.5c-76,72.8-162.7,124.5-269.2,137.8c-26.1,3.3-50.5,14.2-77.3,16.2c-24,1.7-46.7-1.2-69.5-6.6
			c-49.9-11.7-99.9-22.9-149.4-36.1c-51.1-13.7-87.7-52-129.7-81.1c-10.6-7.3-18.9-14.9-32.5-6.8c-90.5,53.9-191.8,76.2-292.9,99.3
			c-46.4,10.6-92.2,23.9-140.1,26.7c-8.4,3.5-17.9-0.9-26.2,3.6c-19.6,0.5-39.2,0.9-58.8,1.4c-11.5,2.4-23,2.4-34.5,0
			c-19.6-0.4-39.3-0.9-58.9-1.3c-8.2-4.5-17.7,0-26-3.6c-113.3-11.3-222.7-41.3-331.4-72.8c-79.4-23-146.7-71.5-213.2-119.9
			c-33.7-24.5-68.6-48.4-96.8-78.7c-120-129.7-215-273.5-248.1-451.5c-11.6-62.4-26.9-124-39.5-186.2c-2.8-13.6-1.6-28-2.3-42.1
			c-4.4-13.4,1.6-27.8-3.7-41.1c0-27.4,0-54.9,0-82.3c5.4-13.3-0.7-27.7,3.7-41.1c5.1-93.5,35.4-181.9,54.3-272.6
			c26.6-127.8,94.6-233.3,171.9-334.9c81-106.5,186.5-181.5,302.8-242.9c70.7-37.3,149.5-50.8,226.4-69.4
			c51.5-12.4,103.2-23.9,155.7-31.2c8.4-3.9,18,0.7,26.3-3.7c19.6-0.5,39.2-0.9,58.8-1.4c11.5-2.4,23-2.4,34.5,0
			c16.3,0.4,32.6,0.9,48.8,1.3c8.3,4.5,17.8-0.1,26.2,3.7c92.8,15.3,184,38.4,274.7,62.5c63.7,16.9,122.6,46.8,174.4,87.6
			c23.2,18.2,35,11.1,52.5-5.8c40.6-39.2,84.5-75.8,138.1-94.8c64.7-22.9,132.2-38,200.1-47.6c54.6-7.7,105.4,17,158.1,26.2
			c106.7,18.7,184.7,83.2,255.1,159.6c11.2,12.2,19.5,14.3,28.4,0.3c31.5-49.5,82.4-76.5,126.8-111.1
			c51.6-40.2,117.2-40.5,175.7-61.1c87.7-30.9,169.5-1.2,252.9,16.9c43.1,9.4,84.8,22,118.8,52c6.6,5.8,13.6,10.9,21.6,2.6
			c34.4-35.1,78.8-47.8,125.2-57.3c43-8.8,85.4-20.1,128.1-30.2c8.3-3.4,17.7,1.1,25.9-3.5c4.2,0,8.3,0,12.5,0
			c8.2,4.6,17.8-0.1,26.1,3.7c48.7,12,97.4,24.1,146.1,35.8c18.5,4.4,38.5,7.2,53.4,18.8c19.3,15,36.5,9.5,57.1,4.4
			c97-24.1,192.9-54.5,293.8-59c9.8-2.4,19.7-2.4,29.5,0c85.7,4.2,167,30.9,250.1,48.6c79.3,16.9,150.9,49.7,216.5,96.6
			c4.7,3.3,8.9,8.6,15.3,4.7c5.1-3.1,3.2-8.9,3.3-13.6c0.2-16.7,0.9-33.4-0.1-50c-3.6-62.2,4.4-123,21.6-182.6
			c11-38.1,16.7-77.4,31-114.8c19.2-50.3,52.5-91.8,85.9-131.4c41.6-49.4,94.1-90,155.6-112.6c64.4-23.8,132.2-38.4,200.3-47.8
			c59.6-8.3,114.8,21.1,172.7,29.1c87.2,11.9,154.5,63.4,211.8,121.4c60.6,61.3,109.8,134.4,121.6,225.9
			c6.4,49.8,24.1,97.7,30.6,147.8c3.6,43.9,0.3,87.8,1.9,131.7c0.2,6.3-6.9,17.9,8.1,18.5c86.7-67,187-102,292.7-124.9
			c67.1-14.5,133.3-33.4,201.7-41.6c8.3-3.6,17.7,1.1,25.9-3.7c18-0.4,36.1-0.8,54.1-1.3c9.8-2.4,19.7-2.4,29.5,0
			c18,0.4,36,0.9,54,1.3c8.2,4.7,17.6,0,25.9,3.7c98.8,15.6,195.6,39.6,291.9,66.2c90.2,24.9,167.3,74.7,241.1,130.4
			c16.4,12.4,33.9,32.5,50.7,32.4c15.1-0.1,25.2-27.1,35-43.7c30-50.6,79.2-79.6,124.1-113.6c52.4-39.6,117.4-40.6,176.1-60.8
			c80.3-27.6,157.9-11.8,233.6,12c58.2,18.3,113.2,17.4,169.1-2c113.2-39.2,224.7-24.5,336.8,6.8c58.9,16.4,119.1,27.3,173.7,57.1
			c30.8,16.8,58.2,38.1,86.4,58.5c8.9,6.5,16,8.3,23.7,2.4c104.8-78.7,230.7-99.9,353.5-129c37.8-9,76.4-14.6,114.7-21.7
			c8.4-3.9,18,0.7,26.3-3.7c19.6-0.5,39.2-0.9,58.8-1.4c11.5-2.4,23-2.4,34.5,0c16.3,0.4,32.6,0.9,48.8,1.3
			c8.3,4.5,17.8-0.1,26.2,3.7c93.6,15.7,185.6,38.7,277.2,63.2c90.7,24.3,165,79.6,239.4,133.9c140.2,102.4,239.8,236.4,294.3,400
			c32.7,98.2,58.2,199.8,64.2,304.5c4.2,73.3-23.1,141.3-37.2,211.6c-4.5,22.5-8.7,45.5-19.8,66.2c-3.5,6.5-1.6,12.3,0.1,19
			c10.7,42.4,19.6,85.2,31.3,127.3c11.5,41.4,1.1,80.1-9,119.4c-16.7,65.4-24,134-61.9,192.4c-62.7,96.6-136.6,180.9-232.2,249.2
			c-114.6,82-241.3,125.5-376.2,153.6c-46.6,9.7-92.2,23.8-140.1,26.5c-8.4,3.5-17.9-0.9-26.2,3.6c-19.6,0.5-39.2,0.9-58.8,1.4
			c-11.5,2.4-23,2.4-34.5,0c-19.6-0.4-39.3-0.9-58.9-1.3c-8.2-4.5-17.7,0-26-3.6c-113.3-11.3-222.7-41.3-331.3-72.8
			c-79.4-23-146.7-71.4-213.1-119.8c-34.4-25.1-70-49.2-98.6-80.4c-119.3-130.1-215.2-273.6-246-452.2c-0.6-3.3-0.6-6.6-6.7-8.7
			c0,71,0,141.3,0,211.6C8143.1,2301.9,8147.8,2311.4,8144,2319.8z"/>
		<path id="XMLID_95_" class="st2" d="M5929,920.5c-12,12.5-10.4,1.2-10.4-6.1c0-48,0.2-96.1,0.4-144.1c9.2,39.7,1.5,80.1,4.3,120.1
			C5924,900.5,5919,912,5929,920.5z"/>
		<path id="XMLID_94_" class="st2" d="M422.3,1700.2c0,13.8,2.3,27.8-3.7,41.1C419.7,1727.6,414,1713.3,422.3,1700.2z"/>
		<path id="XMLID_93_" class="st2" d="M418.6,1823.6c6,13.3,3.7,27.3,3.7,41.1C414,1851.7,419.6,1837.4,418.6,1823.6z"/>
		<path id="XMLID_92_" class="st2" d="M1452.9,744.1c-11.5,0-23,0-34.5,0C1429.9,737.8,1441.4,737.8,1452.9,744.1z"/>
		<path id="XMLID_91_" class="st2" d="M9142.9,744.1c-11.5,0-23,0-34.5,0C9119.9,737.8,9131.4,737.8,9142.9,744.1z"/>
		<path id="XMLID_90_" class="st2" d="M1438.4,2820.9c11.5,0,23,0,34.5,0C1461.4,2827.2,1449.9,2827.2,1438.4,2820.9z"/>
		<path id="XMLID_89_" class="st2" d="M9128.4,2820.9c11.5,0,23,0,34.5,0C9151.4,2827.2,9139.9,2827.2,9128.4,2820.9z"/>
		<path id="XMLID_88_" class="st2" d="M4402.9,749.1c-9.8,0-19.7,0-29.5,0C4383.2,742.8,4393.1,742.8,4402.9,749.1z"/>
		<path id="XMLID_87_" class="st2" d="M6532.9,749.1c-9.8,0-19.7,0-29.5,0C6513.2,742.8,6523.1,742.8,6532.9,749.1z"/>
		<path id="XMLID_86_" class="st2" d="M6503.4,2820.9c9.8,0,19.7,0,29.5,0C6523.1,2827.2,6513.2,2827.2,6503.4,2820.9z"/>
		<path id="XMLID_82_" class="st2" d="M1359.6,745.5c-8.2,5.1-17.3,4.2-26.3,3.7C1341.3,741.9,1350.8,745.9,1359.6,745.5z"/>
		<path id="XMLID_81_" class="st2" d="M1527.9,749.1c-9,0.5-18,1.4-26.1-3.7C1510.6,745.9,1520,742,1527.9,749.1z"/>
		<path id="XMLID_80_" class="st2" d="M3784.3,745.4c-8.2,4.5-17.1,3.8-25.9,3.5C3766.3,742.1,3775.6,745.9,3784.3,745.4z"/>
		<path id="XMLID_79_" class="st2" d="M3822.9,749.2c-8.9,0.3-17.9,1-26.1-3.8C3805.6,745.9,3815.1,742,3822.9,749.2z"/>
		<path id="XMLID_78_" class="st2" d="M6612.9,754.1c-8.9,0.5-17.8,1.3-25.9-3.7C6595.7,750.9,6605.1,747,6612.9,754.1z"/>
		<path id="XMLID_77_" class="st2" d="M6449.3,750.4c-8.1,4.9-17,4.2-25.9,3.7C6431.2,747.1,6440.6,750.9,6449.3,750.4z"/>
		<path id="XMLID_76_" class="st2" d="M9217.9,749.1c-9,0.5-18,1.4-26.1-3.7C9200.6,745.9,9210,742,9217.9,749.1z"/>
		<path id="XMLID_75_" class="st2" d="M9049.6,745.5c-8.2,5.1-17.3,4.2-26.3,3.7C9031.3,741.9,9040.8,745.9,9049.6,745.5z"/>
		<path id="XMLID_74_" class="st2" d="M8144,2319.8c-0.4-8.9-1.4-17.9,3.7-26.1C8147.2,2302.5,8151.2,2311.9,8144,2319.8z"/>
		<path id="XMLID_73_" class="st2" d="M1353.4,2816c8.9-0.5,17.9-1.4,26,3.6C1370.7,2819.1,1361.3,2823,1353.4,2816z"/>
		<path id="XMLID_72_" class="st2" d="M1531.7,2819.5c8.2-5.1,17.2-4.1,26.2-3.6C1549.9,2823,1540.5,2819.1,1531.7,2819.5z"/>
		<path id="XMLID_71_" class="st2" d="M6423.4,2816c8.8-0.5,17.7-1.2,25.8,3.7C6440.5,2819.1,6431.2,2822.9,6423.4,2816z"/>
		<path id="XMLID_70_" class="st2" d="M6587,2819.6c8.1-4.8,17-4.1,25.8-3.6C6605.1,2822.9,6595.7,2819.1,6587,2819.6z"/>
		<path id="XMLID_69_" class="st2" d="M9043.4,2816c8.9-0.5,17.9-1.4,26,3.6C9060.7,2819.1,9051.3,2823,9043.4,2816z"/>
		<path id="XMLID_68_" class="st2" d="M9221.7,2819.5c8.2-5.1,17.2-4.1,26.2-3.6C9239.9,2823,9230.5,2819.1,9221.7,2819.5z"/>
		<path id="XMLID_67_" class="st2" d="M4373.4,2820.9c8.2,0,16.4,0,24.5,0C4389.7,2827,4381.6,2827,4373.4,2820.9z"/>
		<path id="XMLID_66_" class="st3" d="M3952.9,2249.8c0,13.6,0,21.7,0,29.7c0,163.3,0.1,326.6-0.2,489.9
			c-0.1,43.6-6,86.5-24.5,126.4c-39.3,84.9-162.3,115.1-237.7,59.1c-27.2-20.2-38.1-49.6-46.7-80.4c-12.7-45.4-13.7-92.3-13.8-138.8
			c-0.6-477.4-0.5-954.8-0.1-1432.2c0-32.4,1.5-64.9,9.7-96.7c18.6-71.7,68.4-111.6,144.2-115.5c68.6-3.5,130.4,36.9,154,101.3
			c9.5,25.9,14.6,52.9,14.9,80.6c0.2,14.6,0,29.3,0,51.3c13.2-15.1,21.6-24.8,30.2-34.5c80.2-90.5,173.1-160.4,294.8-185.1
			c231.3-47,461,56.5,581.5,262.2c73.7,125.8,99.6,263,100.4,407c0.9,147.4-26.2,287.9-97.3,418.3
			c-109.3,200.2-326.1,307.5-550.8,279.4c-133.2-16.6-234.1-84.2-321.4-179.5c-3.9-4.3-7.5-8.9-11.4-13.3
			C3971.7,2271,3964.5,2262.9,3952.9,2249.8z"/>
		<path id="XMLID_65_" class="st3" d="M9172.1,1870.3c-115,0-229.9,0.5-344.9-0.5c-20.2-0.2-25.5,5.6-24,25.2
			c8.1,104.6,38.6,200.3,118,272.7c104.4,95.2,271.2,109.2,398.9,37.8c76.5-42.7,139.2-102.6,202.2-162.1
			c23.8-22.5,50.6-33.4,83.1-33.7c94.8-0.9,144.2,65.3,114.5,156c-26.3,80.1-80.9,139-148,186.7c-97.2,69.1-206.6,105.9-324.7,117.7
			c-115.3,11.5-229.6,6.8-341.4-25.4c-222.1-64-363.1-210.3-421.8-432.1c-50.2-189.4-42-378,35.4-559.9
			c75.8-178.2,210.9-290.7,398-337.3c178.7-44.5,356.8-41.9,522.5,46.7c208.3,111.3,309,291,307.6,526.6
			c-0.6,94.7-42.1,143.2-134.2,166.4c-52.1,13.2-105.1,15.6-158.6,15.4C9360.4,1870,9266.2,1870.2,9172.1,1870.3z"/>
		<path id="XMLID_64_" class="st3" d="M1482.3,1870.3c-115,0-229.9,0.5-344.9-0.5c-19.8-0.2-25.8,4.9-24.3,24.9
			c8.3,105.5,38.8,202.1,119.8,274.4c113.1,101.1,287.3,108,422.8,21.3c64.3-41.2,119.9-92.7,174.5-145.1
			c43.7-42,93.6-44.1,145.8-25c49.3,18.1,72.3,69.9,58.9,126c-19.2,80.9-69.6,141.1-133.1,190.9c-101.1,79.3-217.7,120-344.6,132.8
			c-115.2,11.7-229.6,6.9-341.4-25.3c-222.1-63.9-363.2-210.1-422-431.9c-50.4-190.3-42.1-379.7,36.2-562.3
			c76-177.1,210.8-288.8,396.9-335.2c178.7-44.5,356.8-42,522.5,46.5c208.3,111.2,309,290.9,307.8,526.5
			c-0.5,94.7-42.1,143.4-134,166.6c-52.9,13.4-106.8,15.6-161.1,15.4C1669,1870,1575.6,1870.3,1482.3,1870.3z"/>
		<path id="XMLID_63_" class="st3" d="M6528.5,2475.2c-146.9,0.6-274.6-28-389.8-100.9c-137-86.7-226.1-210-267-366.3
			c-47.8-182.3-42.2-363.1,31.7-537.9c84.3-199.7,239.5-315.3,448.6-358.8c146.9-30.6,293.4-24.1,434.9,29.4
			c192.9,72.8,319.5,209.9,376.3,407.7c55.4,192.7,48.5,384.2-35.9,567.8c-87.7,190.7-240.8,300.9-444.4,343.6
			C6628.2,2471.1,6572.7,2476.5,6528.5,2475.2z"/>
		<path id="XMLID_62_" class="st3" d="M3240.5,2475c-47.3,1.1-84.3-14.7-115.9-45.1c-48.6-46.5-84.8-102.5-122.5-157.5
			c-63.1-92-126.5-183.9-188.8-276.4c-11.4-16.9-16.4-17.5-28.3-0.4c-84.8,121.6-170.2,242.7-256.1,363.5
			c-22.2,31.2-46.7,60.8-76.7,85.2c-72.5,58.9-197.8,31.9-239.2-51.9c-16.1-32.7-14.1-65.9-1.1-99.2c23.3-59.8,62.9-109.5,99-161.4
			c84.7-121.7,169.7-243.1,255.5-364c10.3-14.5,8.5-22.9-1.5-36.2c-89.9-119.9-179-240.5-268.3-360.9
			c-20.4-27.5-37.8-56.6-50.6-88.6c-42.2-106.3,39.7-182,126-187.2c55.3-3.3,101,13.7,138.5,54.8c64.8,71,116.4,152,174.1,228.3
			c33.7,44.5,66.9,89.4,98.7,135.2c13.7,19.7,19.7,16.2,32.1-1.3c72.9-103.5,146.8-206.2,220.7-309c16.5-23,35.2-44.3,55.8-63.9
			c54.1-51.6,145.5-59.6,207.8-18.3c60.1,39.9,77,105.2,43.9,173.5c-26,53.7-65,98.6-100,146.2c-71,96.6-142.3,193.1-214.8,288.6
			c-12.7,16.7-11.3,27.2,0,43.2c95.6,135.3,190.5,271.2,285.4,407.1c24.3,34.8,48.3,69.9,64.9,109.3c30.4,72,5.9,136.5-64.7,170.5
			C3292.3,2469.9,3267.3,2475,3240.5,2475z"/>
		<path id="XMLID_61_" class="st3" d="M7789.4,1306.3c26.1-40.1,49.1-73.5,73.9-105.8c68.7-89.7,161.5-115.6,268.3-103.6
			c71.3,8,137.9,31.4,196.8,73.2c52.5,37.2,75.7,88.4,63.8,151.9c-10.4,55.5-46.2,90.8-98.9,109.1c-26.5,9.2-52.6,4-78.5-3.4
			c-45.5-13.1-90.2-28.4-137.6-34.8c-99.8-13.6-174.5,26.2-215.6,118.7c-37.5,84.3-47.7,174.4-53.6,265.1
			c-10.5,160.6-4,321.5-5.6,482.2c-0.4,36-3.2,71.6-14.8,105.8c-24.1,71.5-84.8,111.6-166,110.2c-69.8-1.2-127.7-46.6-148.8-115.9
			c-10.9-35.6-12.8-72.2-12.9-108.7c-0.5-303.3-0.6-606.6,0.1-909.9c0.1-47.3,2.2-94.8,17.8-140.6c33.2-97.2,151-138.8,237.8-83.5
			c35.4,22.5,51.3,58.1,61.9,96.5C7785.2,1241,7788.9,1269.9,7789.4,1306.3z"/>
		<path id="XMLID_60_" class="st3" d="M5573.6,1533c0,240.7,0,481.4,0,722.1c0,33.4-1,66.4-10.2,98.9c-21.4,76-80.4,120.8-160.2,121
			c-77.9,0.2-137.6-44.3-158.8-119.2c-7-24.8-11.3-50.2-11.3-76.3c0.1-498.1,0.1-996.1,0.1-1494.2c0-23.4,3-46.4,9-69.1
			c23.3-88.2,80.8-129.7,174.8-126.1c77.3,2.9,136.1,58.3,151.3,141.1c4.9,26.5,5.2,53,5.2,79.6
			C5573.7,1051.5,5573.6,1292.3,5573.6,1533z"/>
		<path id="XMLID_59_" class="st4" d="M4618.1,1800.2c-1.7,74.4-14,163.5-57.4,246c-110.3,209.5-375.1,227.1-512.6,34.1
			c-43.7-61.3-65.1-130.8-73.8-204.3c-11.2-93.3-7.6-186.4,19.1-277c35.1-118.9,107.5-205.2,230-238.2
			c147.1-39.6,284.3,32.8,349,179C4603.3,1609.6,4618.4,1690,4618.1,1800.2z"/>
		<path id="XMLID_58_" class="st4" d="M9110.3,1675c-94.9,0-189.8-0.5-284.6,0.4c-19.6,0.2-23-4.5-19.9-23.8
			c6.9-43.7,15.8-86.6,31.8-127.9c50.4-130.3,155.6-200,291.9-193.2c133.4,6.6,231.5,87.6,268.5,221.5
			c9.3,33.7,13.9,68.3,19.6,102.7c2.9,17.7-4.4,20.6-20,20.6C9301.7,1674.7,9206,1675,9110.3,1675z"/>
		<path id="XMLID_57_" class="st4" d="M1421.2,1675c-92.4,0-184.8,0-277.1,0c-30.6,0-30.4,0-26.7-29.8
			c6.5-53.2,20.1-104.4,43.9-152.5c55.1-111.4,155-170,279.7-161.8c126.7,8.3,212.4,73.2,257.2,191.9
			c16.3,43.1,22.9,88.3,29.4,133.6c2.5,17-5,19-19.2,18.9C1612.6,1674.8,1516.9,1675,1421.2,1675z"/>
		<path id="XMLID_56_" class="st4" d="M6854,1773.6c0.2,104.1-12.8,193.7-56,277.2c-106.8,206.2-360.4,205.8-482.1,97
			c-62.1-55.5-96.4-126.7-113.9-206.2c-28.7-130.3-26-259.7,22.7-385.2c52.6-135.7,159.3-207.7,299.4-206.3
			c135.1,1.4,243.8,79.8,294.2,212.1c10.7,28,19.1,56.8,24.4,86.3C6850.4,1693.7,6855.7,1739.2,6854,1773.6z"/>
	</g>
</g>
</svg>
